<?xml version="1.0" standalone="no"?>
<!DOCTYPE svg PUBLIC "-//W3C//DTD SVG 20010904//EN"
 "http://www.w3.org/TR/2001/REC-SVG-20010904/DTD/svg10.dtd">
<svg version="1.0" xmlns="http://www.w3.org/2000/svg"
 width="608.000000pt" height="169.000000pt" viewBox="0 0 608.000000 169.000000"
 preserveAspectRatio="xMidYMid meet">

<g transform="translate(0.000000,169.000000) scale(0.100000,-0.100000)"
fill="#000000" stroke="none">
<path d="M764 1610 c-112 -16 -266 -82 -339 -145 -21 -18 -12 -15 29 11 298
185 672 145 935 -101 30 -27 50 -43 46 -35 -5 8 -11 24 -12 35 -7 44 -180 162
-291 199 -131 43 -244 54 -368 36z"/>
<path d="M3554 1086 c-46 -20 -64 -52 -64 -112 0 -89 66 -137 139 -100 81 43
82 186 0 215 -39 13 -37 13 -75 -3z m76 -26 c25 -25 34 -61 27 -107 -8 -46
-33 -73 -68 -73 -66 0 -97 123 -44 175 29 30 58 32 85 5z"/>
<path d="M4490 1083 c-41 -21 -60 -54 -60 -106 0 -83 60 -132 135 -107 54 18
51 29 -8 23 -50 -5 -55 -3 -75 22 -32 40 -30 108 3 140 38 38 88 32 108 -14
l11 -26 4 29 c4 35 -3 43 -48 51 -24 4 -46 0 -70 -12z"/>
<path d="M5093 1090 c-28 -11 -46 -45 -38 -71 4 -11 24 -31 46 -45 22 -14 43
-32 46 -41 17 -43 -53 -68 -72 -25 -13 30 -27 28 -23 -5 2 -21 10 -29 36 -37
46 -13 87 17 87 64 0 28 -7 38 -45 65 -49 35 -59 55 -36 74 20 17 50 6 64 -22
10 -21 11 -20 11 11 1 21 -4 32 -13 32 -8 0 -20 2 -28 4 -7 3 -23 1 -35 -4z"/>
<path d="M5253 1090 c-28 -11 -46 -45 -38 -71 4 -11 24 -31 46 -45 22 -14 43
-32 46 -41 17 -43 -53 -68 -72 -25 -13 30 -27 28 -23 -5 2 -21 10 -29 36 -37
46 -13 87 17 87 64 0 28 -7 38 -45 65 -49 35 -59 55 -36 74 20 17 50 6 64 -22
10 -21 11 -20 11 11 1 21 -4 32 -13 32 -8 0 -20 2 -28 4 -7 3 -23 1 -35 -4z"/>
<path d="M5544 1086 c-45 -20 -64 -52 -64 -109 0 -59 11 -82 52 -103 34 -17
82 -13 114 11 17 13 14 14 -34 8 -46 -5 -56 -3 -77 17 -35 33 -36 110 0 145
37 38 105 28 105 -15 0 -11 5 -20 10 -20 12 0 14 57 2 64 -22 13 -80 14 -108
2z"/>
<path d="M1843 1079 c25 -15 25 -183 0 -198 -14 -8 -6 -10 32 -10 28 1 42 3
33 6 -16 4 -18 17 -18 98 0 79 3 96 18 104 13 8 6 10 -33 10 -39 0 -46 -2 -32
-10z"/>
<path d="M1943 1079 c25 -15 25 -183 0 -198 -14 -8 -9 -10 26 -11 39 0 42 2
27 13 -14 10 -16 25 -14 85 l3 72 65 -88 65 -87 3 99 c2 80 6 102 20 112 15
12 12 13 -22 14 -38 0 -38 -1 -22 -19 13 -14 16 -33 14 -82 l-3 -64 -60 82
c-52 71 -64 82 -90 82 -25 0 -27 -1 -12 -10z"/>
<path d="M2171 1058 c0 -30 1 -31 9 -10 6 15 18 22 35 22 25 0 25 0 25 -90 0
-74 -3 -91 -17 -99 -14 -8 -7 -10 32 -10 39 0 46 2 33 10 -15 8 -18 25 -18 99
0 90 0 90 25 90 17 0 29 -7 35 -22 8 -21 9 -20 9 10 l1 32 -85 0 -85 0 1 -32z"/>
<path d="M2373 1076 c14 -11 17 -29 17 -99 0 -71 -3 -88 -17 -96 -13 -8 3 -10
63 -11 76 0 82 1 88 23 10 37 7 43 -10 19 -11 -16 -25 -22 -54 -22 -34 0 -41
4 -46 24 -3 14 -4 33 -2 43 5 25 48 30 65 7 11 -16 13 -13 13 22 -1 31 -3 36
-11 22 -11 -19 -54 -24 -64 -8 -4 6 -4 24 0 40 6 26 11 30 42 30 22 0 41 -7
49 -17 12 -16 13 -15 14 10 l0 27 -82 0 c-71 -1 -81 -3 -65 -14z"/>
<path d="M2563 1079 c14 -8 17 -25 17 -99 0 -74 -3 -91 -17 -99 -14 -8 -7 -10
32 -10 39 0 46 2 33 10 -12 7 -18 22 -18 49 0 55 19 51 55 -10 l30 -50 75 1
c41 1 67 3 58 6 -15 4 -18 17 -18 85 l0 80 63 -86 c34 -47 65 -86 70 -86 4 0
7 45 7 100 0 84 3 101 18 109 13 8 7 10 -28 10 -35 0 -41 -2 -27 -10 14 -8 17
-24 17 -81 l0 -72 -60 82 c-54 74 -63 82 -92 81 -31 0 -32 -1 -10 -11 22 -11
23 -16 20 -102 -3 -90 -3 -91 -29 -94 -21 -2 -34 6 -58 35 -37 44 -37 47 -11
73 24 24 26 63 4 84 -11 12 -35 16 -82 16 -50 -1 -63 -3 -49 -11z m112 -29 c9
-29 -3 -57 -27 -63 -31 -9 -38 -1 -38 44 0 37 2 39 29 39 21 0 32 -6 36 -20z"/>
<path d="M3071 1069 c-45 -119 -66 -167 -79 -181 -14 -17 -13 -18 19 -18 21 0
29 3 21 8 -9 7 -10 15 -3 35 9 23 16 27 49 27 31 0 41 -5 50 -24 7 -17 7 -27
-1 -35 -8 -8 -1 -11 28 -11 35 0 37 1 23 18 -8 9 -30 55 -48 102 -40 102 -46
111 -59 79z m25 -64 c20 -48 18 -55 -16 -55 -16 0 -30 3 -30 6 0 12 23 84 27
84 2 0 11 -16 19 -35z"/>
<path d="M3190 1076 c0 -8 -3 -21 -6 -30 -3 -9 -2 -16 4 -16 5 0 12 9 15 20 3
14 14 20 31 20 l26 0 0 -90 c0 -74 -3 -91 -17 -99 -14 -8 -6 -10 32 -10 28 1
42 3 33 6 -16 4 -18 17 -18 99 0 92 1 94 23 94 15 0 28 -9 35 -22 10 -22 11
-21 11 10 l1 32 -85 0 c-67 0 -85 -3 -85 -14z"/>
<path d="M3393 1076 c14 -11 17 -29 17 -99 0 -71 -3 -88 -17 -96 -14 -8 -8
-10 27 -11 32 0 41 3 30 10 -11 7 -15 30 -15 96 1 73 4 88 20 100 17 13 14 14
-31 14 -43 -1 -47 -2 -31 -14z"/>
<path d="M3723 1079 c14 -8 17 -25 17 -99 0 -74 -3 -91 -17 -99 -14 -8 -8 -10
27 -10 35 0 41 2 28 10 -15 8 -18 24 -18 87 l0 76 63 -86 c34 -48 65 -87 70
-87 4 -1 7 44 7 99 0 84 3 101 18 109 14 8 9 10 -22 11 -33 0 -37 -2 -26 -15
7 -8 14 -45 17 -82 l4 -68 -31 35 c-17 19 -45 56 -63 82 -26 39 -37 47 -62 47
-25 0 -27 -1 -12 -10z"/>
<path d="M4019 1063 c-6 -16 -22 -57 -35 -93 -14 -35 -32 -72 -41 -82 -15 -17
-14 -18 17 -18 25 0 31 3 23 11 -8 8 -8 18 -1 35 9 19 19 24 50 24 31 0 40 -5
47 -22 5 -14 5 -28 -1 -35 -8 -10 -1 -13 31 -13 40 0 40 1 23 18 -10 10 -34
60 -53 110 -19 51 -37 92 -42 92 -4 0 -12 -12 -18 -27z m40 -100 c1 -8 -11
-13 -29 -13 -35 0 -36 4 -14 56 l17 39 13 -35 c7 -19 13 -41 13 -47z"/>
<path d="M4173 1079 c14 -8 17 -25 17 -99 0 -74 -3 -91 -17 -99 -13 -8 3 -10
63 -11 80 0 82 1 88 26 9 34 1 42 -14 15 -8 -16 -20 -21 -50 -21 l-40 0 0 90
c0 74 3 91 18 99 13 8 6 10 -33 10 -39 0 -46 -2 -32 -10z"/>
<path d="M4643 1079 c14 -8 17 -25 17 -99 0 -74 -3 -91 -17 -99 -13 -8 3 -10
63 -11 85 0 95 5 93 48 0 13 -3 11 -11 -5 -9 -19 -19 -23 -55 -23 l-43 0 0 90
c0 74 3 91 18 99 13 8 6 10 -33 10 -39 0 -46 -2 -32 -10z"/>
<path d="M4886 1013 c-15 -43 -37 -93 -47 -110 l-18 -33 32 0 c23 0 28 3 18 9
-12 8 -13 14 -3 35 10 22 18 26 52 26 34 0 41 -4 46 -24 3 -14 3 -30 -1 -35
-4 -7 7 -11 31 -11 35 0 36 1 21 18 -8 9 -32 59 -52 110 -20 50 -40 92 -44 92
-3 0 -19 -35 -35 -77z m52 -20 c12 -36 8 -43 -25 -43 -26 0 -28 10 -11 57 13
36 20 34 36 -14z"/>
<path d="M5383 1072 c23 -26 24 -164 1 -186 -14 -15 -11 -16 28 -16 34 1 39 3
26 11 -15 8 -18 25 -18 99 0 74 3 91 18 99 13 8 8 10 -27 11 -42 0 -43 -1 -28
-18z"/>
<path d="M5736 993 c-21 -54 -45 -104 -54 -110 -13 -11 -10 -13 24 -13 24 0
34 3 26 9 -9 5 -11 17 -6 34 5 24 11 27 49 27 38 0 44 -3 49 -27 5 -17 3 -29
-6 -34 -8 -6 4 -9 31 -9 38 0 42 2 29 13 -8 6 -32 56 -53 110 -21 53 -41 97
-45 97 -4 0 -24 -44 -44 -97z m67 -35 c-5 -9 -47 -11 -55 -2 -3 3 1 24 10 46
l16 41 17 -39 c9 -21 14 -42 12 -46z"/>
<path d="M5913 1079 c14 -8 17 -25 17 -104 0 -81 -2 -94 -17 -98 -10 -3 19 -5
64 -6 l81 -1 11 30 c5 17 6 30 1 30 -5 0 -12 -9 -15 -20 -5 -16 -15 -20 -51
-20 l-44 0 0 90 c0 74 3 91 18 99 13 8 6 10 -33 10 -39 0 -46 -2 -32 -10z"/>
<path d="M867 1024 c-15 -20 -16 -28 -6 -40 11 -13 14 -11 26 17 17 41 4 55
-20 23z"/>
<path d="M2685 631 c-62 -26 -80 -116 -31 -158 27 -23 75 -30 124 -17 17 5 22
14 22 38 0 18 5 37 12 44 9 9 4 12 -26 12 -34 0 -37 -2 -25 -16 37 -44 -3 -88
-59 -65 -51 21 -66 80 -31 125 27 34 98 38 106 6 7 -26 23 -26 23 0 0 33 -67
50 -115 31z"/>
<path d="M3059 619 c-28 -28 -21 -48 26 -80 43 -29 51 -55 22 -73 -15 -9 -23
-6 -43 19 l-25 30 3 -30 c3 -28 6 -30 45 -33 35 -3 44 1 58 22 22 34 12 59
-33 82 -47 25 -57 64 -17 64 14 0 28 -7 31 -15 9 -21 24 -19 24 4 0 35 -59 42
-91 10z"/>
<path d="M4555 631 c-64 -27 -82 -114 -32 -157 32 -28 92 -32 123 -9 17 13 14
14 -32 8 -47 -5 -52 -3 -73 23 -26 34 -23 90 6 111 28 21 78 16 96 -9 l16 -23
0 26 c1 22 -5 28 -30 33 -39 7 -49 7 -74 -3z"/>
<path d="M4800 545 c-44 -93 -45 -95 -22 -95 13 0 20 4 17 10 -3 6 -3 19 0 30
9 29 81 29 90 0 3 -11 3 -24 0 -30 -4 -6 7 -10 26 -10 25 0 29 3 21 13 -6 7
-28 50 -49 95 l-38 83 -45 -96z m53 28 c2 -10 8 -26 12 -35 6 -15 2 -18 -25
-18 -27 0 -31 3 -25 18 4 9 10 25 12 35 3 9 9 17 13 17 4 0 10 -8 13 -17z"/>
<path d="M1843 619 c13 -8 17 -24 17 -79 0 -55 -4 -71 -17 -79 -14 -8 -8 -10
27 -10 35 0 41 2 28 10 -12 6 -18 22 -18 44 0 30 3 35 23 35 13 0 28 -5 35
-12 9 -9 12 -5 12 22 0 32 0 33 -20 15 -27 -24 -50 -13 -50 25 0 28 3 30 36
30 23 0 42 -6 50 -17 12 -17 13 -16 14 5 0 21 -4 22 -77 22 -58 -1 -73 -3 -60
-11z"/>
<path d="M2078 623 c16 -6 17 -144 0 -161 -9 -9 4 -12 59 -12 55 0 72 3 77 16
10 25 6 41 -5 22 -7 -12 -22 -18 -49 -18 -39 0 -40 1 -40 35 0 30 3 35 23 35
13 0 28 -5 35 -12 9 -9 12 -5 12 21 0 30 -1 31 -16 16 -25 -25 -49 -15 -52 23
-3 31 -2 32 32 32 23 0 39 -6 45 -17 9 -16 10 -16 11 5 0 21 -4 22 -72 21 -40
0 -67 -3 -60 -6z"/>
<path d="M2338 623 c16 -6 17 -144 0 -161 -9 -9 -3 -12 27 -12 34 0 37 2 21
13 -14 10 -17 25 -14 72 l3 59 60 -74 60 -73 3 83 c2 52 8 87 15 92 7 4 -3 8
-23 8 -22 0 -30 -3 -22 -8 15 -10 29 -112 15 -112 -5 0 -32 27 -58 60 -37 47
-54 60 -74 59 -14 0 -20 -3 -13 -6z"/>
<path d="M3268 623 c16 -6 17 -144 0 -161 -9 -9 -3 -12 27 -12 30 0 36 3 27
12 -7 7 -12 27 -12 45 0 32 1 33 45 33 45 0 45 0 45 -35 0 -22 -6 -38 -17 -44
-14 -8 -8 -10 27 -10 35 0 41 2 28 10 -14 8 -18 24 -18 79 0 55 4 71 18 79 13
8 9 10 -23 10 -22 0 -34 -3 -27 -6 6 -2 12 -20 12 -39 0 -34 0 -34 -45 -34
-45 0 -45 0 -45 34 0 19 6 37 13 39 6 3 -6 5 -28 5 -22 0 -34 -2 -27 -5z"/>
<path d="M3563 619 c13 -8 17 -24 17 -74 0 -76 14 -95 69 -95 55 0 71 23 71
98 0 48 4 63 18 71 14 9 11 10 -17 11 -27 0 -32 -3 -23 -12 14 -14 16 -87 2
-122 -8 -21 -16 -26 -44 -26 -25 0 -38 6 -46 19 -15 28 -13 128 3 134 6 3 -6
6 -28 6 -32 0 -36 -2 -22 -10z"/>
<path d="M3863 619 c13 -8 17 -24 17 -79 0 -55 -4 -71 -17 -79 -14 -8 -8 -10
27 -10 35 0 41 2 28 10 -15 8 -18 24 -18 84 0 49 4 75 13 78 6 3 -6 6 -28 6
-32 0 -36 -2 -22 -10z"/>
<path d="M4270 558 c-17 -40 -39 -81 -47 -90 -15 -17 -14 -18 17 -18 26 0 31
3 22 12 -20 20 4 48 43 48 39 0 63 -28 43 -48 -9 -9 -3 -12 25 -12 l36 0 -23
34 c-13 19 -33 60 -46 90 -12 31 -26 56 -30 56 -4 0 -22 -33 -40 -72z m60 -25
c0 -7 -11 -13 -25 -13 -28 0 -30 6 -14 47 l11 28 13 -25 c8 -14 14 -31 15 -37z"/>
<path d="M5048 623 c8 -3 12 -29 12 -78 0 -60 -3 -76 -17 -84 -30 -17 94 -13
127 4 37 19 50 43 50 93 0 59 -21 72 -111 71 -41 0 -68 -3 -61 -6z m118 -11
c21 -14 36 -54 29 -80 -11 -43 -34 -62 -77 -62 l-38 0 0 68 c0 38 3 72 7 75 9
9 65 9 79 -1z"/>
<path d="M5323 623 c14 -4 17 -16 17 -78 0 -60 -3 -76 -17 -84 -14 -8 0 -10
54 -11 63 0 74 3 83 21 14 26 7 35 -10 14 -7 -9 -29 -15 -51 -15 -38 0 -39 1
-39 35 0 32 3 35 29 35 16 0 32 -6 34 -12 3 -7 6 2 6 21 1 31 0 33 -12 17 -21
-28 -52 -17 -52 19 0 27 4 30 33 33 23 2 38 -2 48 -15 14 -17 15 -17 12 2 -3
18 -12 20 -78 22 -41 0 -67 -1 -57 -4z"/>
<path d="M5573 623 c14 -4 17 -16 17 -78 0 -60 -3 -76 -17 -84 -14 -8 -10 -10
22 -10 32 0 36 2 23 10 -14 8 -18 23 -18 64 0 30 3 55 8 55 4 -1 21 -31 37
-67 l31 -67 36 74 36 75 1 -62 c1 -49 -3 -64 -16 -72 -14 -8 -8 -10 27 -10 35
0 41 2 28 10 -14 8 -18 24 -18 79 0 55 4 71 18 79 14 9 12 10 -13 11 -28 0
-33 -5 -59 -65 -15 -36 -32 -65 -36 -65 -4 0 -19 29 -35 65 -26 61 -29 65 -59
64 -17 -1 -23 -3 -13 -6z"/>
<path d="M5902 618 c59 -49 87 -136 51 -157 -14 -8 -8 -10 27 -10 40 0 43 1
28 13 -10 7 -18 24 -18 37 0 25 41 94 68 117 14 10 12 12 -13 12 -15 0 -26 -3
-22 -6 7 -7 -18 -59 -32 -68 -5 -3 -18 9 -29 26 -16 24 -18 35 -9 40 7 4 -6 8
-27 8 -33 0 -37 -2 -24 -12z"/>
</g>
</svg>
